<svg xmlns="http://www.w3.org/2000/svg" viewBox="0 0 100 100">
  <rect width="100" height="100" rx="20" fill="#2A0A1A"/>
  <rect x="3" y="3" width="94" height="94" rx="17" fill="none" stroke="#E2B557" stroke-opacity="0.45" stroke-width="1.5"/>
  <svg x="13" y="12" width="74" height="76" viewBox="1338 2504 5898 5521" preserveAspectRatio="xMidYMid meet">
    <path fill="#E2B557" d="M4920.81 6281.03c180.03,0 330.04,18.85 499.99,-38.5 23.89,-8.06 28.22,-13.89 57.04,-21.23 0,130.42 9.87,230.61 -25.97,329.95 -13.42,37.18 -39.64,84.91 -65.57,107.48 -51.82,45.13 -81.57,36.69 -94.14,88.17 246.76,-62.88 270.49,-74.19 550.42,31.12 375.86,141.4 123.29,404.89 83.07,470.58 84.69,21.58 185.67,137.73 185.67,238.91 0,157.14 -165.82,346.41 -218.44,346.41 -117.04,0 -441.03,-607.06 -509.6,-744.7 -37.9,-76.07 -68.73,-135.55 -112.59,-199.39 -45.45,-66.14 -117.25,-88.45 -172.81,-145.46 -59.67,-61.24 -129.03,-291.56 -161.19,-397.08 -6.16,-20.2 -10.33,-52.69 -15.88,-66.26zm-2413.8 -107.51c-73.23,-53.64 -116.02,-223.08 -62.44,-343.03 8.45,-18.91 13.45,-27.79 25.76,-43.5 25.81,-32.94 3.35,-18.37 36.68,-31.56 -50.83,115.85 -24.93,301.08 0,418.09zm1081.3 -1791.81c-72.4,0 -131.13,-6.4 -193.44,-39.3l-46.85 -32.38c159.69,0 231.11,5.24 356.72,-39.91 37.36,-13.43 38.35,-14.67 67.49,-33.7 21.89,-14.29 39.66,-24.57 59.07,-42.9l106.53 -110.45c-40.01,187.83 -124.6,298.63 -349.51,298.63zm54.61 -609.22c25.04,-37.39 28.55,-18.34 76.41,-35.89l153.24 -71.32c35.52,-20.15 38.54,-27.79 71.82,-52.85 98.85,-74.43 118.33,-111.82 182.26,-170.96 426.93,-394.9 1177.08,-423.35 1523.48,35.09 45.53,60.26 68.38,105.87 100.81,176.43 17.11,37.18 24.69,53.71 39.6,100.04 45.65,141.89 58.84,183.75 83.72,350.42 62.31,417.44 46.84,904.13 -61.63,1313.35 -43.11,162.63 -95.41,305.41 -188.51,414.99l-10.69 12.19c-1.59,1.73 -3.94,4.17 -5.56,5.87 -10.72,11.21 -21.94,21.91 -34.33,34.13 -28.18,27.77 -51.42,43.86 -84.54,62.82 -312.85,179.05 -854.35,-66.83 -1081.04,-215.8 -111.89,-73.52 -133.08,-96.43 -223.57,-173.57 -69.85,-59.55 -129.96,-141.01 -181.15,-219.98 -23.61,-36.43 -77.06,-143.35 -87.27,-191.24l-21.84 0c-34.02,159.68 -221.49,194.56 -317.3,48.39 -17.94,-27.37 -26.69,-46.93 -37.91,-89.94 -16.5,-63.26 -3.41,-48.13 -61.52,-64.13 -43.04,-11.85 -53.74,-11.76 -88.34,-34.78 -88.07,-58.58 -117.5,-137.9 -117.5,-265.69 21.45,17.2 30.1,36.91 51.08,63.59 1.47,1.87 3.55,4.58 5.04,6.42 1.5,1.85 3.61,4.54 5.12,6.35l50.89 51.86c109.62,95.23 292.45,81.91 415.02,-18.09 96.18,-78.48 234.03,148.02 328.6,-93.99 47.02,-120.29 19.16,-317.29 -29.76,-418.65 -27.96,-57.92 -30.68,-22.57 -14.86,-82.33 61.92,-233.87 -25.49,-428.01 -57.5,-578.29 -117.34,29.9 -40.03,95.56 -382.28,95.56zm-655.33 35.84c0,58.46 11.69,111.74 32.76,155.28 -65.99,38.19 -88.41,50.34 -139.47,110.26 -50.47,59.22 -78.97,145.22 -78.97,236.16 0,107.59 50,118.13 87.38,179.18 -194.37,112.48 -260.79,352.29 -141.85,561.28 15.59,27.4 34.5,45.13 56.98,69.07 24.14,25.69 47.13,38.77 63.02,62.48 -280.83,71.56 -729.35,413.79 -593.18,827.93 20.12,61.19 46.08,89.26 79.83,139.65 -122.22,-31.14 -100.57,-71.96 -174.75,-131.4 -12.04,56.51 -32.77,115.22 -32.77,191.13 0,101.1 21.16,191.6 84.21,254.31 80.26,79.85 143.98,21.59 229.44,-18.79 57.22,-27.03 105.65,-46.27 163.78,-71.73 114.38,-50.08 211.08,-94.83 326.14,-145.01 262.8,-114.62 216.09,-81.11 306.54,-417.3 14.79,-55 39.24,-142.77 58.56,-186.81 42.18,10.74 257.76,139 324.57,170.61 37.51,17.75 80.36,40.5 123.24,44.4 -1.96,-1.87 -5.32,-7.21 -6.27,-5.09 -5.74,12.91 -201.26,-141.08 -201.26,-401.05 84.61,21.55 158.39,59.72 251.21,59.72 8.69,40.8 67.28,138.81 91.74,174.43 107.54,156.63 261.81,293.66 415.15,394.07l159.3 100.53c57,30.86 117.48,67.39 174.96,95.34 92.01,44.75 108.71,22.99 140.6,132.91 38.19,131.65 87.06,280.18 146.55,401.16 59.06,120.1 174.97,124.98 243.45,307.13 97.03,258.15 227.24,503.71 358.69,742.52 24.46,44.41 83.06,141.24 93.58,184.33 484.67,0 987.59,-48.42 1433.9,-259.42 55.43,-26.2 113.3,-60.18 171.66,-75.05 0,-55.88 2.33,-39.07 -14.07,-80.17 -65.08,-163.07 -132.94,-330.57 -235.61,-470.98 -86.57,-118.4 -191.94,-202 -311.89,-280.03 -146,-94.96 -311.54,-129.78 -469.04,-203.76 -58.15,-27.32 -76.29,-126.11 -120.56,-190.67 -93.38,-136.21 -320.19,-243.31 -465.31,-327.29 28.81,-47.06 68.36,-64.21 98.44,-107.36 96.06,-137.86 166.31,-284.71 205.22,-456.43 18.93,-83.5 45.85,-157.83 45.85,-248.49 184.09,0 218.57,62.47 411.74,-51.4 116.7,-68.79 188.98,-224.88 188.98,-390.59 0,-120.48 -112.27,-274.02 -196.61,-298.64 44.8,-210.28 4.54,-328.31 -128.08,-469.13 -15.48,-16.42 -90.35,-60.05 -90.35,-80.36 0,-128.65 10.36,-186.31 -31.29,-312.2 -64.62,-195.31 -174.41,-274.98 -188.93,-342.85 -5.66,-26.46 -5.97,-49.35 -12,-82.45 -4.25,-23.37 -11.87,-46.52 -20.19,-73.48 -31.11,-100.91 -76.46,-170.3 -141.85,-239.06l-77.46 -70.57c-9.39,-6.46 -21.21,-12.95 -27.57,-17.63 -64.15,-47.12 -82.52,-165.93 -236.01,-255.53 -41.48,-24.21 -68.59,-38.83 -116.3,-51.99 -49.97,-13.8 -92.3,-15.56 -148.5,-28.71 -179.7,-42.04 -218.78,-84.17 -455.69,-34.08 -88.78,18.78 -67,34.29 -163.74,18.49 -44.39,-7.25 -118.85,5.05 -170.06,10.64 -52.52,5.72 -111.76,20.16 -161.26,38.64 -102.59,38.29 -217.06,29.85 -316.43,72.02 -50.93,21.61 -93.29,40.42 -135.26,67.08 -387,245.73 -456.13,594.72 -544.63,670.56 -113.12,96.96 -220.26,216.66 -220.26,404.16z"/>
    <path fill="#E2B557" d="M3271.57 6233.25c-39.52,3.6 -87.89,34.37 -127.8,51.36l-399.75 160.06c-189.64,81.71 -751.31,307.13 -890.29,400.05 -171.89,114.93 -402.59,255.49 -515.39,439.72 45.09,-4.1 81.69,-25.22 128.7,-38.41 489.46,-137.41 1137.3,2.9 1604.11,150.09 818.04,257.93 1533.93,628.94 2428.54,628.94 -10.6,-49.76 -56.79,-136.17 -80.1,-187.14l-174.75 -370.31c-83.65,-183.02 -170.07,-415.69 -306.49,-512.93 -56.51,-40.27 -103.01,-72.63 -130.35,-144.13l-71.59 -208.4c-54.05,-177.85 -73.51,-202.57 -255.53,-281.96l-1025.18 -431.69c-36.47,-16.57 -56.1,-33.81 -96.77,-37.52l-45.02 189.67c-12.1,44.89 -38.52,142.27 -42.35,192.59z"/>
  </svg>
</svg>
