<?xml version="1.0" encoding="UTF-8"?>
<!DOCTYPE svg PUBLIC "-//W3C//DTD SVG 1.1//EN" "http://www.w3.org/Graphics/SVG/1.1/DTD/svg11.dtd">
<!-- Creator: CorelDRAW -->
<svg xmlns="http://www.w3.org/2000/svg" xml:space="preserve" width="8.5in" height="11in" version="1.1" shape-rendering="geometricPrecision" text-rendering="geometricPrecision" image-rendering="optimizeQuality" fill-rule="evenodd" clip-rule="evenodd"
viewBox="0 0 8500 11000"
 xmlns:xlink="http://www.w3.org/1999/xlink"
 xmlns:xodm="http://www.corel.com/coreldraw/odm/2003">
 <g id="Layer_x0020_1">
  <metadata id="CorelCorpID_0Corel-Layer"/>
  <g id="_3036027181792">
   <path fill="#4B4B4D" d="M4464.7 4576.97c86.94,0 159.38,9.11 241.46,-18.59 11.54,-3.89 13.63,-6.7 27.54,-10.25 0,62.98 4.77,111.37 -12.54,159.34 -6.48,17.95 -19.15,41 -31.66,51.9 -25.03,21.8 -39.39,17.72 -45.46,42.58 119.17,-30.37 130.63,-35.83 265.81,15.03 181.51,68.28 59.54,195.53 40.11,227.26 40.9,10.42 89.67,66.51 89.67,115.37 0,75.89 -80.08,167.29 -105.49,167.29 -56.52,0 -212.98,-293.16 -246.09,-359.63 -18.3,-36.74 -33.19,-65.46 -54.37,-96.29 -21.95,-31.94 -56.62,-42.71 -83.45,-70.25 -28.81,-29.57 -62.31,-140.8 -77.84,-191.76 -2.98,-9.75 -4.99,-25.44 -7.67,-32zm-1165.67 -51.92c-35.37,-25.9 -56.03,-107.73 -30.15,-165.66 4.08,-9.13 6.49,-13.42 12.44,-21 12.47,-15.91 1.62,-8.87 17.71,-15.24 -24.54,55.95 -12.04,145.4 0,201.91zm522.18 -865.3c-34.96,0 -63.33,-3.09 -93.42,-18.98l-22.63 -15.63c77.12,0 111.61,2.53 172.27,-19.28 18.04,-6.48 18.52,-7.08 32.59,-16.27 10.57,-6.9 19.15,-11.87 28.52,-20.72l51.44 -53.34c-19.32,90.71 -60.17,144.22 -168.78,144.22zm26.37 -294.2c12.09,-18.06 13.79,-8.86 36.9,-17.33l74 -34.44c17.15,-9.73 18.61,-13.42 34.68,-25.52 47.74,-35.94 57.15,-54 88.02,-82.56 206.17,-190.71 568.44,-204.44 735.72,16.94 21.99,29.1 33.02,51.13 48.69,85.2 8.26,17.96 11.93,25.94 19.12,48.31 22.04,68.52 28.42,88.74 40.43,169.22 30.09,201.59 22.62,436.62 -29.76,634.24 -20.81,78.54 -46.07,147.48 -91.04,200.41l-5.16 5.89c-0.77,0.84 -1.9,2.02 -2.69,2.84 -5.18,5.41 -10.6,10.58 -16.58,16.48 -13.61,13.41 -24.83,21.18 -40.83,30.34 -151.08,86.46 -412.58,-32.28 -522.05,-104.21 -54.03,-35.5 -64.27,-46.57 -107.97,-83.82 -33.73,-28.76 -62.76,-68.1 -87.48,-106.23 -11.4,-17.59 -37.22,-69.23 -42.14,-92.36l-10.55 0c-16.43,77.11 -106.96,93.96 -153.23,23.37 -8.66,-13.22 -12.89,-22.66 -18.3,-43.43 -7.97,-30.55 -1.65,-23.24 -29.71,-30.96 -20.78,-5.73 -25.95,-5.68 -42.66,-16.8 -42.53,-28.29 -56.74,-66.59 -56.74,-128.31 10.36,8.31 14.54,17.83 24.67,30.71 0.71,0.9 1.71,2.21 2.43,3.1 0.72,0.89 1.74,2.19 2.47,3.07l24.57 25.04c52.94,45.99 141.23,39.56 200.43,-8.74 46.45,-37.9 113.02,71.48 158.69,-45.39 22.71,-58.09 9.25,-153.22 -14.37,-202.18 -13.5,-27.97 -14.82,-10.9 -7.18,-39.76 29.9,-112.94 -12.31,-206.69 -27.77,-279.27 -56.67,14.44 -19.33,46.15 -184.61,46.15zm-316.47 17.3c0,28.24 5.65,53.96 15.82,74.99 -31.87,18.44 -42.69,24.31 -67.35,53.24 -24.37,28.6 -38.14,70.13 -38.14,114.05 0,51.95 24.14,57.05 42.2,86.53 -93.87,54.32 -125.94,170.13 -68.5,271.06 7.53,13.23 16.66,21.79 27.52,33.35 11.66,12.41 22.76,18.72 30.43,30.17 -135.61,34.56 -352.21,199.82 -286.46,399.82 9.72,29.55 22.26,43.11 38.55,67.44 -59.02,-15.04 -48.57,-34.75 -84.39,-63.45 -5.81,27.29 -15.82,55.64 -15.82,92.3 0,48.83 10.22,92.53 40.67,122.81 38.76,38.56 69.53,10.43 110.8,-9.07 27.63,-13.05 51.02,-22.35 79.09,-34.64 55.23,-24.19 101.93,-45.8 157.5,-70.03 126.91,-55.35 104.35,-39.17 148.04,-201.52 7.14,-26.56 18.94,-68.95 28.28,-90.22 20.37,5.19 124.48,67.12 156.74,82.39 18.11,8.57 38.81,19.56 59.52,21.44 -0.95,-0.9 -2.57,-3.48 -3.03,-2.46 -2.77,6.23 -97.19,-68.13 -97.19,-193.67 40.86,10.41 76.49,28.84 121.32,28.84 4.2,19.7 32.49,67.03 44.3,84.23 51.93,75.64 126.43,141.81 200.48,190.31l76.93 48.55c27.53,14.9 56.74,32.54 84.49,46.04 44.43,21.61 52.5,11.1 67.9,64.19 18.44,63.57 42.04,135.3 70.77,193.72 28.52,58 84.5,60.35 117.56,148.32 46.86,124.67 109.74,243.25 173.22,358.58 11.81,21.45 40.11,68.2 45.19,89.02 234.05,0 476.93,-23.38 692.46,-125.28 26.77,-12.66 54.72,-29.06 82.9,-36.24 0,-26.98 1.13,-18.87 -6.8,-38.72 -31.43,-78.75 -64.2,-159.64 -113.78,-227.44 -41.81,-57.18 -92.7,-97.56 -150.62,-135.23 -70.5,-45.86 -150.44,-62.67 -226.51,-98.4 -28.08,-13.19 -36.84,-60.9 -58.22,-92.08 -45.09,-65.78 -154.63,-117.5 -224.7,-158.05 13.91,-22.72 33.02,-31.01 47.54,-51.85 46.39,-66.57 80.31,-137.49 99.11,-220.41 9.14,-40.32 22.14,-76.22 22.14,-120 88.9,0 105.56,30.17 198.84,-24.82 56.35,-33.22 91.26,-108.59 91.26,-188.62 0,-58.18 -54.22,-132.33 -94.94,-144.22 21.63,-101.55 2.19,-158.55 -61.85,-226.55 -7.47,-7.93 -43.63,-29 -43.63,-38.81 0,-62.13 5,-89.97 -15.11,-150.77 -31.2,-94.32 -84.23,-132.79 -91.24,-165.57 -2.73,-12.78 -2.88,-23.83 -5.79,-39.82 -2.06,-11.28 -5.74,-22.46 -9.75,-35.48 -15.03,-48.73 -36.92,-82.24 -68.5,-115.44l-37.41 -34.08c-4.53,-3.12 -10.24,-6.26 -13.31,-8.52 -30.98,-22.76 -39.85,-80.13 -113.98,-123.4 -20.03,-11.69 -33.12,-18.75 -56.16,-25.11 -24.13,-6.66 -44.57,-7.51 -71.72,-13.86 -86.78,-20.3 -105.65,-40.65 -220.06,-16.46 -42.87,9.07 -32.35,16.56 -79.07,8.93 -21.44,-3.5 -57.39,2.44 -82.13,5.14 -25.36,2.76 -53.97,9.74 -77.88,18.66 -49.54,18.5 -104.82,14.42 -152.81,34.78 -24.59,10.44 -45.05,19.52 -65.32,32.4 -186.89,118.67 -220.28,287.2 -263.01,323.83 -54.63,46.82 -106.37,104.63 -106.37,195.17z"/>
   <path fill="#4B4B4D" d="M3668.25 4553.9c-19.09,1.74 -42.44,16.6 -61.72,24.81l-193.05 77.3c-91.58,39.46 -362.83,148.32 -429.94,193.19 -83.01,55.5 -194.42,123.39 -248.89,212.35 21.78,-1.98 39.45,-12.18 62.15,-18.55 236.37,-66.36 549.22,1.4 774.66,72.48 395.05,124.56 740.76,303.72 1172.79,303.72 -5.12,-24.03 -27.43,-65.76 -38.68,-90.37l-84.39 -178.83c-40.4,-88.38 -82.13,-200.75 -148.01,-247.7 -27.29,-19.45 -49.74,-35.07 -62.95,-69.6l-34.57 -100.64c-26.1,-85.89 -35.5,-97.82 -123.4,-136.17l-495.08 -208.47c-17.61,-8 -27.09,-16.33 -46.73,-18.12l-21.74 91.6c-5.84,21.68 -18.61,68.7 -20.45,93z"/>
  </g>
 </g>
</svg>
